<svg version="1.0" xmlns="http://www.w3.org/2000/svg"
 width="220.000000pt" height="214.000000pt" viewBox="0 0 220.000000 214.000000"
 preserveAspectRatio="xMidYMid meet">

<g transform="translate(0.000000,214.000000) scale(0.100000,-0.100000)"
fill="#000000" stroke="none">
<path d="M958 1810 c-25 -10 -102 -50 -170 -88 -68 -37 -167 -92 -221 -122
-59 -32 -115 -72 -141 -100 -42 -44 -44 -51 -51 -121 -3 -41 -5 -213 -3 -384
3 -283 5 -313 22 -349 29 -58 64 -80 462 -292 137 -73 211 -93 272 -73 20 6
145 68 277 138 279 147 325 183 345 272 9 41 9 64 1 97 -7 23 -14 42 -17 42
-2 0 -61 -28 -130 -62 -105 -52 -134 -62 -179 -62 -39 -1 -61 5 -82 20 -42 31
-53 61 -53 145 0 68 3 80 29 116 33 46 75 79 191 153 47 29 108 68 137 86 62
40 84 71 93 127 16 115 -16 151 -255 286 -295 166 -337 185 -413 188 -49 2
-80 -2 -114 -17z"/>
</g>
</svg>
